<?xml version="1.0" encoding="UTF-8" standalone="no"?><!DOCTYPE svg PUBLIC "-//W3C//DTD SVG 1.1//EN" "http://www.w3.org/Graphics/SVG/1.1/DTD/svg11.dtd"><svg width="100%" height="100%" viewBox="0 0 1000 500" version="1.1" xmlns="http://www.w3.org/2000/svg" xmlns:xlink="http://www.w3.org/1999/xlink" xml:space="preserve" xmlns:serif="http://www.serif.com/" style="fill-rule:evenodd;clip-rule:evenodd;stroke-linejoin:round;stroke-miterlimit:2;"><g><g><path d="M401.894,219.827c0,0 -44.556,-12.77 -51.659,0c-12.822,23.053 -25.27,138.317 -25.27,138.317l-29.408,0c0,0 29.743,-115.264 25.27,-138.317c-2.71,-13.967 -56.557,0.477 -56.557,0.477l9.147,-25.971l133.285,0l-4.808,25.494Z" style="fill-rule:nonzero;"/><path d="M464.134,285.519l36.564,72.624l-32.762,0c0,0 -22.978,-56.361 -31.309,-67.813c-3.179,-4.37 -11.293,-0.373 -18.673,-0.895l-12.635,68.708l-29.967,0l29.967,-163.937c20.368,0.026 35.572,0.594 42.927,0.126c17.613,-1.12 31.524,1.609 41.773,8.435c10.25,6.826 15.375,16.692 15.375,29.598c0,13.13 -3.746,24.525 -11.238,34.186c-7.492,9.661 -17.499,15.983 -30.023,18.967Zm-33.433,-66.134l-4.566,24.982c0,0 -5.14,17.303 -3.82,20.898c1.125,3.062 8.312,0.671 11.741,0.671c28.178,0 42.267,-8.952 42.267,-26.857c0,-7.535 -2.702,-12.887 -8.107,-16.058c-5.404,-3.171 -14.368,-4.756 -26.892,-4.756c-1.044,0 -4.584,0.373 -10.623,1.119Z" style="fill-rule:nonzero;"/><path d="M608.979,358.143c0,0 5.479,-27.768 -5.144,-33.321c-10.623,-5.554 -58.592,0 -58.592,0l-19.232,33.321l-30.302,0l98.947,-163.811l11.213,0l33.413,163.811l-30.302,0Zm-17.667,-116.289c-7.156,0 -33.657,61.163 -33.657,61.163l42.937,0c0,0 -2.125,-61.163 -9.281,-61.163Z" style="fill-rule:nonzero;"/><path d="M745.091,222.811c-8.498,-6.038 -17.928,-9.057 -28.289,-9.057c-16.772,0 -30.843,7.995 -42.211,23.985c-11.368,15.99 -17.052,33.713 -17.052,53.169c0,12.598 3.094,22.661 9.281,30.19c6.187,7.529 14.797,11.293 25.83,11.293c17.145,0 34.326,-4.659 44.091,-13.977l-4.285,25.606c-10.585,9.243 -25.83,13.865 -45.733,13.865c-17.742,0 -32.054,-5.833 -42.937,-17.499c-10.883,-11.666 -16.325,-26.817 -16.325,-45.453c0,-30.116 8.368,-55.386 25.103,-75.811c16.735,-20.425 38.595,-30.638 65.58,-30.638c13.194,0 30.619,0.764 35.11,6.485c4.491,5.721 -8.163,27.842 -8.163,27.842Z" style="fill-rule:nonzero;"/><path d="M811.171,266.342l40.701,91.801l-32.762,0c0,0 -21.655,-62.598 -30.638,-69.997c-8.983,-7.399 -23.258,25.606 -23.258,25.606l-8.274,44.391l-29.072,0l30.079,-163.811l29.072,0c0,0 -22.606,74.47 -13.53,74.47c9.076,0 67.984,-74.47 67.984,-74.47l34.439,0l-64.742,72.01Z" style="fill-rule:nonzero;"/></g><path d="M231.791,252.39l-21.797,59.757l-21.437,0l-0.586,45.996l-63.248,0l-0.636,-126.162c0,-26.014 7.807,-47.539 23.422,-64.573c15.615,-17.034 35.279,-25.552 58.992,-25.552c26.148,0 51.229,19.561 66.865,52.208l-54.162,22.243c-2.964,-8.49 -8.204,-12.735 -15.721,-12.735c-9.951,0 -14.978,6.126 -16.477,11.025c-2.488,8.136 -5.656,33.194 1.55,37.792c7.206,4.599 43.234,0 43.234,0Z" style="fill:#ce0000;fill-rule:nonzero;"/><path d="M264.27,220.693l-25.389,94.691l67.914,1.164" style="fill:#ce0000;"/></g></svg>