<?xml version="1.0" encoding="UTF-8" standalone="no"?>
<!DOCTYPE svg PUBLIC "-//W3C//DTD SVG 1.1//EN" "http://www.w3.org/Graphics/SVG/1.1/DTD/svg11.dtd">
<svg width="100%" height="100%" viewBox="0 0 171 171" version="1.1" xmlns="http://www.w3.org/2000/svg" xmlns:xlink="http://www.w3.org/1999/xlink" xml:space="preserve" xmlns:serif="http://www.serif.com/" style="fill-rule:evenodd;clip-rule:evenodd;stroke-linejoin:round;stroke-miterlimit:2;">
    <g transform="matrix(1.333333,0,0,1.333333,0,0)">
        <path d="M41.502,40.906L45.696,38.613C46.81,39.276 47.774,40.27 48.587,41.595C49.4,42.92 49.867,44.365 49.987,45.931L41.57,50.344C41.211,48.825 41.031,47.198 41.031,45.464C41.031,43.886 41.188,42.367 41.502,40.906Z" style="fill:rgb(88,164,176);"/>
        <path d="M24.049,50.447L24.049,70.756L12.314,64.316C12.013,63.202 11.84,61.967 11.795,60.612C11.79,60.472 11.788,60.333 11.788,60.195C11.788,59 11.963,57.889 12.314,56.863L24.049,50.447Z" style="fill:rgb(88,164,176);"/>
        <path d="M52.104,102.721C51.877,102.653 51.649,102.583 51.422,102.512C49.626,101.948 47.898,101.307 46.239,100.589C45.964,100.37 45.697,100.137 45.439,99.889L48.521,89.713C50.435,90.676 52.448,91.546 54.559,92.323C54.768,92.399 54.976,92.474 55.184,92.547L52.104,102.721Z" style="fill:rgb(88,164,176);"/>
        <path d="M89.572,69.076C90.443,70.139 91.206,71.267 91.863,72.462C92.543,73.7 93.068,75.014 93.439,76.402L82.33,82.475C81.878,82.206 81.45,81.882 81.047,81.504C80.678,79.711 79.85,78.069 78.565,76.578C78.423,76.414 78.277,76.252 78.126,76.092C78.068,75.786 78.024,75.474 77.994,75.157L89.572,69.076Z" style="fill:rgb(88,164,176);"/>
        <path d="M68.665,23.207L68.985,23.217C69.99,23.338 71.025,23.64 72.09,24.124C73.267,24.657 74.321,25.367 75.252,26.252L72.96,33.824C70.961,33.447 69.068,33.259 67.282,33.259C66.706,33.259 66.146,33.278 65.603,33.316L68.665,23.207Z" style="fill:rgb(88,164,176);"/>
        <path d="M59.698,52.811C60.743,53.415 61.889,53.979 63.137,54.502L66.303,55.813L62.651,67.879L56.862,65.439C56.567,65.314 56.276,65.187 55.989,65.058L59.698,52.811Z" style="fill:rgb(88,164,176);"/>
        <g transform="matrix(1.431784,0,0,1.431784,-28.133733,-21.360086)">
            <path d="M27.882,56.96L27.882,32.157C28.499,32.05 29.202,31.97 29.993,31.916C30.784,31.862 31.487,31.836 32.104,31.836C32.801,31.836 33.538,31.862 34.315,31.916C35.092,31.97 35.803,32.05 36.446,32.157L36.446,50.152L28.25,54.633C28.005,55.35 27.882,56.126 27.882,56.96ZM36.446,50.152L48.636,43.489C48.417,44.509 48.307,45.57 48.307,46.672C48.307,47.883 48.432,49.019 48.683,50.08L39.576,54.854C38.987,55.17 38.193,55.553 37.194,56.006C36.512,56.314 36.648,57.433 36.642,58.186L37.194,58.435C38.193,58.887 38.987,59.271 39.576,59.586L54.562,67.474C54.457,68.546 54.11,69.556 53.521,70.502C52.932,71.449 52.269,72.154 51.533,72.616L36.446,64.337L36.446,50.152ZM48.636,43.489C48.998,41.804 49.659,40.232 50.619,38.771C52.16,36.426 54.298,34.563 57.032,33.182C59.766,31.802 62.929,31.112 66.52,31.112C66.885,31.112 67.247,31.117 67.607,31.127L65.469,38.188C63.043,38.357 61.088,39.067 59.605,40.319C57.889,41.766 57.032,43.562 57.032,45.707C57.032,47.476 57.655,48.923 58.901,50.049C59.6,50.68 60.414,51.265 61.345,51.803L58.754,60.357C55.686,58.977 53.209,57.243 51.322,55.155C50.022,53.716 49.142,52.024 48.683,50.08L54.562,46.998C54.478,45.905 54.152,44.895 53.584,43.97C53.016,43.044 52.343,42.35 51.565,41.887L48.636,43.489ZM67.607,31.127L67.612,31.112C67.684,31.118 67.757,31.125 67.83,31.134C67.756,31.132 67.682,31.129 67.607,31.127ZM67.83,31.134C70.695,31.232 73.408,31.653 75.969,32.398C78.917,33.256 81.437,34.208 83.527,35.253C83.474,36.486 83.166,37.712 82.603,38.932C82.04,40.152 81.316,41.15 80.432,41.927C78.341,40.882 76.042,39.991 73.536,39.254C72.526,38.956 71.549,38.719 70.607,38.542L72.208,33.253C71.557,32.635 70.821,32.14 70,31.767C69.255,31.429 68.532,31.218 67.83,31.134ZM70.607,38.542L65.958,53.9L63.746,52.984C62.874,52.619 62.074,52.225 61.345,51.803L65.469,38.188C65.848,38.161 66.239,38.148 66.641,38.148C67.889,38.148 69.211,38.279 70.607,38.542ZM65.958,53.9L73.355,56.964C75.634,57.929 77.684,59.122 79.507,60.543C80.53,61.34 81.431,62.214 82.209,63.163L74.123,67.411C74.144,67.632 74.175,67.849 74.215,68.064C72.974,66.751 71.267,65.638 69.093,64.724L63.407,62.327L65.958,53.9ZM82.209,63.163L89.14,59.523C89.729,59.208 90.518,58.824 91.506,58.372C92.495,57.92 93.252,57.588 93.778,57.378L93.778,56.968C93.252,56.736 92.495,56.395 91.506,55.943C90.518,55.49 89.729,55.117 89.14,54.823L74.123,46.967C74.249,45.873 74.601,44.853 75.179,43.906C75.758,42.96 76.426,42.255 77.183,41.793L100.466,54.57C100.677,55.348 100.792,56.211 100.813,57.157C100.834,58.104 100.719,58.976 100.466,59.776L84.91,68.28C84.651,67.31 84.284,66.393 83.809,65.528C83.35,64.694 82.817,63.905 82.209,63.163ZM84.91,68.28C85.221,69.445 85.377,70.685 85.377,72.001C85.377,75.057 84.653,77.805 83.206,80.244C81.758,82.683 79.587,84.606 76.692,86.013C73.798,87.421 70.125,88.124 65.676,88.124C62.507,88.124 59.295,87.637 56.04,86.662L58.191,79.556C60.885,80.497 63.554,80.967 66.199,80.967C69.442,80.967 71.955,80.264 73.737,78.857C75.52,77.449 76.411,75.633 76.411,73.409C76.411,72.87 76.359,72.348 76.255,71.843C76.536,72.108 76.835,72.334 77.151,72.522L84.91,68.28ZM56.04,86.662L55.981,86.857C55.228,86.772 54.44,86.548 53.619,86.186C53.02,85.922 52.461,85.584 51.944,85.173C53.103,85.675 54.31,86.122 55.564,86.516C55.723,86.566 55.882,86.614 56.04,86.662ZM51.944,85.173C49.946,84.307 48.09,83.281 46.377,82.093C46.511,80.86 46.926,79.641 47.623,78.434C48.32,77.228 49.111,76.263 49.996,75.54C51.117,76.275 52.298,76.954 53.538,77.577L51.385,84.684C51.566,84.857 51.752,85.02 51.944,85.173ZM53.538,77.577L58.754,60.357C58.954,60.447 59.158,60.536 59.364,60.623L63.407,62.327L58.191,79.556C58.046,79.505 57.901,79.453 57.755,79.399C56.281,78.857 54.875,78.249 53.538,77.577ZM36.446,64.337L36.446,87.079C35.803,87.186 35.092,87.266 34.315,87.32C33.538,87.374 32.801,87.4 32.104,87.4C31.487,87.4 30.784,87.374 29.993,87.32C29.202,87.266 28.499,87.186 27.882,87.079L27.882,56.96C27.882,57.057 27.884,57.154 27.887,57.252C27.919,58.198 28.04,59.061 28.25,59.839L36.446,64.337ZM76.255,71.843C75.844,71.457 75.469,70.989 75.132,70.439C74.679,69.701 74.373,68.909 74.215,68.064C74.32,68.175 74.422,68.288 74.521,68.403C75.419,69.444 75.997,70.591 76.255,71.843Z" style="fill:rgb(44,44,44);"/>
        </g>
    </g>
</svg>
