<?xml version="1.0" encoding="UTF-8" standalone="no"?><!DOCTYPE svg PUBLIC "-//W3C//DTD SVG 1.1//EN" "http://www.w3.org/Graphics/SVG/1.1/DTD/svg11.dtd"><svg width="100%" height="100%" viewBox="0 0 128 128" version="1.1" xmlns="http://www.w3.org/2000/svg" xmlns:xlink="http://www.w3.org/1999/xlink" xml:space="preserve" xmlns:serif="http://www.serif.com/" style="fill-rule:evenodd;clip-rule:evenodd;stroke-linejoin:round;stroke-miterlimit:2;"><g><path d="M41.894,37.957c0.616,-0.107 1.32,-0.188 2.111,-0.241c0.791,-0.054 1.494,-0.08 2.111,-0.08c0.697,0 1.434,0.027 2.211,0.08c0.777,0.054 1.488,0.134 2.131,0.241l0,54.922c-0.643,0.107 -1.354,0.188 -2.131,0.241c-0.777,0.054 -1.514,0.08 -2.211,0.08c-0.616,0 -1.32,-0.027 -2.111,-0.08c-0.791,-0.054 -1.494,-0.134 -2.111,-0.241l0,-54.922Z" style="fill:#eee;fill-rule:nonzero;"/><path d="M60.389,87.893c0.134,-1.233 0.549,-2.453 1.246,-3.659c0.697,-1.206 1.488,-2.171 2.372,-2.895c2.332,1.528 4.919,2.814 7.76,3.86c2.841,1.045 5.656,1.568 8.443,1.568c3.243,0 5.756,-0.704 7.539,-2.111c1.782,-1.407 2.674,-3.223 2.674,-5.448c0,-1.876 -0.63,-3.545 -1.89,-5.006c-1.26,-1.461 -3.069,-2.687 -5.428,-3.679l-9.73,-4.101c-3.351,-1.421 -6.031,-3.243 -8.041,-5.468c-2.01,-2.225 -3.015,-5.053 -3.015,-8.483c0,-2.922 0.771,-5.555 2.312,-7.901c1.541,-2.345 3.679,-4.208 6.413,-5.589c2.734,-1.38 5.897,-2.071 9.489,-2.071c3.351,0 6.5,0.429 9.448,1.287c2.948,0.858 5.468,1.809 7.559,2.855c-0.054,1.233 -0.362,2.459 -0.925,3.679c-0.563,1.22 -1.287,2.218 -2.171,2.995c-2.091,-1.045 -4.389,-1.937 -6.895,-2.674c-2.506,-0.737 -4.805,-1.106 -6.895,-1.106c-2.975,0 -5.321,0.724 -7.036,2.171c-1.715,1.447 -2.573,3.243 -2.573,5.388c0,1.769 0.623,3.216 1.87,4.342c1.246,1.126 2.861,2.104 4.845,2.935l9.609,3.98c2.278,0.965 4.329,2.158 6.152,3.578c1.823,1.421 3.257,3.082 4.302,4.986c1.045,1.903 1.568,4.061 1.568,6.473c0,3.056 -0.724,5.803 -2.171,8.242c-1.447,2.439 -3.619,4.362 -6.513,5.77c-2.895,1.407 -6.567,2.111 -11.016,2.111c-3.324,0 -6.694,-0.536 -10.112,-1.608c-3.418,-1.072 -6.48,-2.546 -9.187,-4.423Z" style="fill:#eee;fill-rule:nonzero;"/></g><g><path d="M36.247,36.489c0.946,0.063 1.925,0.279 2.934,0.647c1.01,0.368 1.914,0.857 2.713,1.467l-19.939,52.908c-0.925,-0.084 -1.893,-0.305 -2.903,-0.663c-1.01,-0.358 -1.925,-0.852 -2.745,-1.483l19.939,-52.877Z" style="fill:#58a4b0;fill-rule:nonzero;"/></g></svg>